<svg id="icon_Custom_sign-in" data-name="icon / Custom / sign-in" xmlns="http://www.w3.org/2000/svg" width="12" height="11" viewBox="0 0 12 11">
  <g id="그룹_490" data-name="그룹 490" transform="translate(2 4)">
    <path id="패스_478" data-name="패스 478" d="M13,16a1,1,0,1,1,1-1A1,1,0,0,1,13,16Z" transform="translate(-11 -14)" fill="#c699f6"/>
    <path id="패스_479" data-name="패스 479" d="M14.292,19.333h-3.25a.375.375,0,0,1-.375-.375v-.25a1.376,1.376,0,0,1,1.375-1.375h1.25a1.376,1.376,0,0,1,1.375,1.375v.25a.374.374,0,0,1-.374.375Z" transform="translate(-10.666 -14.833)" fill="#c699f6"/>
    <path id="패스_480" data-name="패스 480" d="M20.743,16.339l-.75-.875a.375.375,0,0,0-.66.245v.375h-1.5a.5.5,0,1,0,0,1h1.5v.375a.375.375,0,0,0,.66.244l.75-.875A.375.375,0,0,0,20.743,16.339Z" transform="translate(-12.333 -14.333)" fill="#c699f6"/>
  </g>
  <path id="패스_481" data-name="패스 481" d="M18.5,8.667h-9a1.5,1.5,0,0,0-1.5,1.5v8a1.5,1.5,0,0,0,1.5,1.5h9a1.5,1.5,0,0,0,1.5-1.5v-8A1.5,1.5,0,0,0,18.5,8.667Zm0,10h-9a.5.5,0,0,1-.5-.5v-7H19v7A.5.5,0,0,1,18.5,18.667Z" transform="translate(-8 -8.667)" fill="#793bce"/>
</svg>
