<svg xmlns="http://www.w3.org/2000/svg" width="130" height="130" viewBox="0 0 130 130">
  <g id="love" transform="translate(0)">
    <path id="패스_56" data-name="패스 56" d="M112.349,56.778a2.621,2.621,0,0,1-2.646,2.646H96.471V99.118a7.928,7.928,0,0,1-7.939,7.939H30.316a7.928,7.928,0,0,1-7.939-7.939V59.424H9.146A2.621,2.621,0,0,1,6.5,56.778a2.678,2.678,0,0,1,.847-1.958L59.424,6.5l21.17,19.635V11.792H96.471V40.848l6.086,5.663L111.5,54.82a2.679,2.679,0,0,1,.847,1.958Z" transform="translate(-2.531 -2.525)" fill="none"/>
    <path id="패스_61" data-name="패스 61" d="M52.474,83.905a3.989,3.989,0,0,1-2.376-.789C46.684,80.571,16.75,57.666,16.75,38.29A20.545,20.545,0,0,1,52.474,24.45,20.545,20.545,0,0,1,88.2,38.29c0,19.376-29.934,42.276-33.348,44.827A3.989,3.989,0,0,1,52.474,83.905ZM37.285,25.689a12.61,12.61,0,0,0-12.6,12.6c0,11.993,18.269,29.034,27.785,36.629,9.516-7.6,27.785-24.657,27.785-36.629a12.6,12.6,0,0,0-24.144-5.049c-1.26,2.895-6.023,2.895-7.282,0A12.565,12.565,0,0,0,37.285,25.689Z" transform="translate(41.802 46.095)" fill="#fff"/>
    <path id="패스_62" data-name="패스 62" d="M57.506,114.249H33.619a11.94,11.94,0,0,1-11.944-11.908V66.617h-9.29A6.627,6.627,0,0,1,7.921,55.085L60.107,6.813a3.984,3.984,0,0,1,5.42,0L80.072,20.261V15.016a3.977,3.977,0,0,1,3.981-3.969H99.978a3.977,3.977,0,0,1,3.981,3.969V42.341l13.807,12.792-5.42,5.822L97.271,46.982A4,4,0,0,1,96,44.071V18.985H88.04V29.359a3.981,3.981,0,0,1-6.688,2.911L62.815,15.138,15.746,58.679h9.911a3.977,3.977,0,0,1,3.981,3.969v39.693a3.98,3.98,0,0,0,3.981,3.969H57.506ZM13.325,60.923l-.037.032C13.3,60.944,13.314,60.933,13.325,60.923Z" transform="translate(-5.75 -5.749)" fill="#fff"/>
  </g>
</svg>
