<svg xmlns="http://www.w3.org/2000/svg" width="1280" height="360" viewBox="0 0 1280 360">
  <g id="그룹_362" data-name="그룹 362" transform="translate(-320 -72)">
    <rect id="사각형_77" data-name="사각형 77" width="1280" height="360" transform="translate(320 72)" fill="#fff"/>
    <g id="그룹_228" data-name="그룹 228" transform="translate(446 -147)">
      <text id="방문_서비스의_모든_것" data-name="방문 서비스의
모든 것" transform="translate(3 386)" fill="#4708ae" font-size="40" font-family="NotoSansKR-Bold, Noto Sans KR" font-weight="700" letter-spacing="-0.02em"><tspan x="0" y="0">방문 서비스</tspan><tspan y="0" font-family="NotoSansKR-Medium, Noto Sans KR" font-weight="500" fill="#000">의</tspan><tspan font-family="NotoSansKR-Medium, Noto Sans KR" font-weight="500" fill="#000"><tspan x="0" y="59">모든 것</tspan></tspan></text>
    </g>
    <g id="OBJECTS" transform="translate(971.64 92.943)">
      <g id="그룹_91" data-name="그룹 91" transform="translate(67.303 75.928)">
        <g id="그룹_72" data-name="그룹 72" transform="translate(76.08 47.165)">
          <g id="그룹_71" data-name="그룹 71" transform="translate(5.242 16.961)">
            <path id="패스_172" data-name="패스 172" d="M191.83,230.1l12.094-23.691L189.68,185.187l13.528-7.037,10.668,18.169c3.74,6.429,5.1,10.948,1.4,15.261l-18.292,23.008Z" transform="translate(-189.68 -178.15)" fill="#f7a59c"/>
            <path id="패스_173" data-name="패스 173" d="M193.579,252.739s-2.785-.307-3.228,6.347-2.116,11.036,2.45,11.35,12.361-3.508,7.044-8.873l-1.979-5.644Z" transform="translate(-189.682 -201.829)" fill="#f7a59c"/>
          </g>
          <path id="패스_174" data-name="패스 174" d="M185.781,153.3s12.074,1.16,19.118,19.916l-19.541,14.538L182,176.26Z" transform="translate(-182 -153.3)" fill="#fdc75b"/>
        </g>
        <g id="그룹_80" data-name="그룹 80" transform="translate(16.247 109.862)">
          <g id="그룹_75" data-name="그룹 75" transform="translate(0 101.915)">
            <g id="그룹_74" data-name="그룹 74">
              <path id="패스_175" data-name="패스 175" d="M124.2,419.624l.341-24.619,10.32-.526-1.474,25.738Z" transform="translate(-103.817 -394.48)" fill="#fff"/>
              <g id="그룹_73" data-name="그룹 73" transform="translate(0 18.947)">
                <path id="패스_176" data-name="패스 176" d="M125.067,424.2s-7.883,3.412-11.583-1.959L94.34,432.614l33.178-.225Z" transform="translate(-94.337 -422.24)" fill="#09090b"/>
                <rect id="사각형_44" data-name="사각형 44" width="33.178" height="2.928" transform="translate(33.197 13.071) rotate(179.617)" fill="#fff"/>
              </g>
            </g>
            <path id="패스_177" data-name="패스 177" d="M134.2,413.479l-.137,2.423-9.61-2.512Z" transform="translate(-103.896 -400.483)" fill="#09090b"/>
          </g>
          <g id="그룹_78" data-name="그룹 78" transform="translate(61.015 101.956)">
            <g id="그룹_77" data-name="그룹 77" transform="translate(0)">
              <path id="패스_178" data-name="패스 178" d="M197.114,419.684l-3.044-24.619-10.32-.525,4.184,25.738Z" transform="translate(-183.738 -394.54)" fill="#fff"/>
              <g id="그룹_76" data-name="그룹 76" transform="translate(0 18.906)">
                <path id="패스_179" data-name="패스 179" d="M186.2,424.2s7.883,3.412,11.583-1.959l19.145,10.374-33.178-.225Z" transform="translate(-183.738 -422.24)" fill="#09090b"/>
                <rect id="사각형_45" data-name="사각형 45" width="33.178" height="2.928" transform="translate(0.02 10.16) rotate(0.383)" fill="#fff"/>
              </g>
            </g>
            <path id="패스_180" data-name="패스 180" d="M186.16,408.926l10.067,1.631-.321-2.607Z" transform="translate(-184.503 -398.797)" fill="#09090b"/>
          </g>
          <g id="그룹_79" data-name="그룹 79" transform="translate(14.861)">
            <path id="패스_181" data-name="패스 181" d="M123.768,245.16,116.11,359.941l22.715.184,7.979-97.213,8.668,95.185,24.742-2.485L168.419,245.16Z" transform="translate(-116.11 -245.16)" fill="#123c5e"/>
            <line id="선_4" data-name="선 4" y1="2.887" x2="8.033" transform="translate(30.693 14.865)" fill="none" stroke="#09090b" stroke-miterlimit="10" stroke-width="0.35"/>
          </g>
        </g>
        <g id="그룹_84" data-name="그룹 84" transform="translate(0 27.871)">
          <g id="그룹_82" data-name="그룹 82">
            <g id="그룹_81" data-name="그룹 81">
              <path id="패스_182" data-name="패스 182" d="M103.295,172.121,97.9,179.035,90.5,154.15l-7.917.887,3.761,31.574a9.028,9.028,0,0,0,14.8,6.969l14.572-12.818Z" transform="translate(-74.357 -134.276)" fill="#ffb1a5"/>
              <path id="패스_183" data-name="패스 183" d="M70.715,132.142a.884.884,0,0,1,1.31-.1l4.477,5.126-1.9-8.764a.932.932,0,0,1,1.788-.512l2.785,7.883-1.461-9.787a.837.837,0,0,1,1.638-.334l2.355,8.907-.532-7.774a1,1,0,0,1,1.065-1c.594-.034.969.587,1.037,1.051l1.365,10.9,1.406-3.392a1.226,1.226,0,0,1,2.416.225c.369,7.917-2.143,10.88-2.143,10.88l-6.846,1.85a14.175,14.175,0,0,1-4.8-7.76l-3.965-6.348A.86.86,0,0,1,70.715,132.142Z" transform="translate(-70.532 -125.032)" fill="#ffb1a5"/>
            </g>
            <path id="패스_184" data-name="패스 184" d="M128.187,152.22a14.859,14.859,0,0,0-8.73,5.569,142.6,142.6,0,0,0-8.8,13.842l12.954,13.33,5.924-4.921Z" transform="translate(-83.272 -133.663)" fill="#fdc75b"/>
          </g>
          <g id="그룹_83" data-name="그룹 83" transform="translate(37.933 18.557)">
            <path id="패스_185" data-name="패스 185" d="M133.092,152.22l-1.147,7.685s-2.846,8.532-2.293,10.709l-3.542,45.013,47.579,5.481-3.112-61.475a13.585,13.585,0,0,0,.082-3.966,3.137,3.137,0,0,0-2.942-2.751l-9.542-.478Z" transform="translate(-126.11 -152.22)" fill="#fdc75b"/>
            <line id="선_5" data-name="선 5" x2="0.628" y2="14.012" transform="translate(45.013 17.698)" fill="none" stroke="#09090b" stroke-miterlimit="10" stroke-width="0.35"/>
            <line id="선_6" data-name="선 6" y1="14.34" x2="1.133" transform="translate(2.409 18.394)" fill="none" stroke="#09090b" stroke-miterlimit="10" stroke-width="0.35"/>
          </g>
        </g>
        <g id="그룹_90" data-name="그룹 90" transform="translate(47.925 0)">
          <g id="그룹_85" data-name="그룹 85" transform="translate(11.014 32.989)">
            <path id="패스_186" data-name="패스 186" d="M168.246,145.785l-.526-12.968-10.211-.287-.621,15.207c-.068,1.665,1.379,1.365,3.037,1.276l5.631-.287A2.825,2.825,0,0,0,168.246,145.785Z" transform="translate(-156.887 -132.53)" fill="#ffb1a5"/>
          </g>
          <path id="패스_187" data-name="패스 187" d="M158.34,135.653l10.2,6-.355-8.7Z" transform="translate(-146.334 -99.675)" fill="#4a280d"/>
          <g id="그룹_86" data-name="그룹 86" transform="translate(26.387 20.226)">
            <path id="패스_188" data-name="패스 188" d="M187.054,117.652a3.822,3.822,0,1,1-3.822-3.822A3.825,3.825,0,0,1,187.054,117.652Z" transform="translate(-179.41 -113.83)" fill="#ffb1a5"/>
            <path id="패스_189" data-name="패스 189" d="M181.87,119.657a3.173,3.173,0,0,1,3.358-2.075" transform="translate(-180.191 -115.009)" fill="none" stroke="#4a280d" stroke-linecap="round" stroke-linejoin="round" stroke-miterlimit="10" stroke-width="0.35"/>
          </g>
          <g id="그룹_87" data-name="그룹 87" transform="translate(0 20.226)">
            <circle id="타원_7" data-name="타원 7" cx="3.822" cy="3.822" r="3.822" fill="#ffb1a5"/>
            <path id="패스_190" data-name="패스 190" d="M147.928,119.657a3.174,3.174,0,0,0-3.358-2.075" transform="translate(-141.963 -115.009)" fill="none" stroke="#4a280d" stroke-linecap="round" stroke-linejoin="round" stroke-miterlimit="10" stroke-width="0.35"/>
          </g>
          <path id="패스_191" data-name="패스 191" d="M172.012,103.809a53.1,53.1,0,0,1-1.406,12.06c-.69,2.921-2.628,4.962-5.365,6.607l-.491.294a9.544,9.544,0,0,1-9.583.109h0c-2.969-1.693-5.044-3.918-5.679-7.051a77.983,77.983,0,0,1-1.29-12.019s-1.106-12.3,11.74-12.06S172.012,103.809,172.012,103.809Z" transform="translate(-143.107 -86.593)" fill="#ffb1a5"/>
          <g id="그룹_88" data-name="그룹 88" transform="translate(2.917 7.824)">
            <path id="패스_192" data-name="패스 192" d="M147.874,110.048s2.71-8.736.751-14.388C148.625,95.653,141.049,97.83,147.874,110.048Z" transform="translate(-145.024 -95.66)" fill="#4a280d"/>
            <path id="패스_193" data-name="패스 193" d="M181.429,110.048s-3.42-8.736-1.461-14.388C179.968,95.653,187.039,97.4,181.429,110.048Z" transform="translate(-155.925 -95.66)" fill="#4a280d"/>
          </g>
          <g id="그룹_89" data-name="그룹 89" transform="translate(7.856 15.754)">
            <path id="패스_194" data-name="패스 194" d="M164.47,120.03v1.59a.618.618,0,0,0,.737.621l.846-.177" transform="translate(-156.136 -111.327)" fill="none" stroke="#4a280d" stroke-linecap="round" stroke-linejoin="round" stroke-miterlimit="10" stroke-width="0.35"/>
            <path id="패스_195" data-name="패스 195" d="M159.44,108.679l-7.18.86s.573-1.9,3.508-2.218S159.44,108.679,159.44,108.679Z" transform="translate(-152.26 -107.278)" fill="#4a280d"/>
            <path id="패스_196" data-name="패스 196" d="M168.4,108.679l7.18.86s-.573-1.9-3.508-2.218S168.4,108.679,168.4,108.679Z" transform="translate(-157.384 -107.278)" fill="#4a280d"/>
            <path id="패스_197" data-name="패스 197" d="M159.44,126.01h7.535s-.594,1.945-3.768,1.945A4.385,4.385,0,0,1,159.44,126.01Z" transform="translate(-154.539 -113.225)" fill="#fff"/>
            <path id="패스_198" data-name="패스 198" d="M170.78,116.681a1.991,1.991,0,0,1,2.969,0" transform="translate(-158.14 -110.046)" fill="none" stroke="#4a280d" stroke-linecap="round" stroke-linejoin="round" stroke-miterlimit="10" stroke-width="0.5"/>
            <path id="패스_199" data-name="패스 199" d="M155.34,116.681a1.991,1.991,0,0,1,2.969,0" transform="translate(-153.238 -110.046)" fill="none" stroke="#4a280d" stroke-linecap="round" stroke-linejoin="round" stroke-miterlimit="10" stroke-width="0.5"/>
          </g>
          <path id="패스_200" data-name="패스 200" d="M150.831,97.44s2.17-3.911,6.068-1.747,7.74,4.218,14.695,2.519l-.921-4.716s-9.658-10.279-20.442,0Z" transform="translate(-143.76 -85.698)" fill="#4a280d"/>
          <path id="패스_201" data-name="패스 201" d="M150.22,92s.621-7.132,10.682-7.754S173.952,89,173.952,89l-1.829.328s3.522,1.515,4.436,2.983L174.579,93l2.607,2.321s-8.2,3.187-12.756,1.481l-3.768-5.7Z" transform="translate(-143.756 -84.197)" fill="#4a280d"/>
          <path id="패스_202" data-name="패스 202" d="M154.191,152.22l-6.034.075s-.648,6.115,11.132,6.416,11.972-6.02,11.972-6.02l-6.368-.464h-10.7Z" transform="translate(-143.1 -105.792)" fill="#ffb1a5"/>
        </g>
      </g>
      <g id="그룹_108" data-name="그룹 108" transform="translate(152.946 79.379)">
        <g id="그룹_99" data-name="그룹 99" transform="translate(3.651 79.205)">
          <g id="그룹_94" data-name="그룹 94" transform="translate(0 120.214)">
            <g id="그룹_93" data-name="그룹 93">
              <g id="그룹_92" data-name="그룹 92" transform="translate(0 25.39)">
                <path id="패스_203" data-name="패스 203" d="M209.414,429.95l-7.03,3.467a1.748,1.748,0,0,0-.962,2.007c.184.628.778,1.215,2.341,1.242,3.474.061,18.858-2.334,18.858-2.334v1.61l7.139-.805s.5-8.163-1.672-9.357Z" transform="translate(-201.36 -420.9)" fill="#20120c"/>
                <path id="패스_204" data-name="패스 204" d="M224.5,419.511l-11.33,8.17s1.215,3.119,6.58,1.037,12.095-5.208,12.095-5.208l-.983-4.88Z" transform="translate(-205.11 -418.63)" fill="#ffb1a5"/>
              </g>
              <path id="패스_205" data-name="패스 205" d="M236.526,411.7l4.669-30.27-11.323,1.078-1.932,28.113Z" transform="translate(-209.799 -381.43)" fill="#ffb1a5"/>
            </g>
            <path id="패스_206" data-name="패스 206" d="M228.94,409.67l9.276,2.075.321-2.075Z" transform="translate(-210.116 -390.395)" fill="#09090b"/>
          </g>
          <g id="그룹_97" data-name="그룹 97" transform="translate(65.229 120.214)">
            <g id="그룹_96" data-name="그룹 96">
              <g id="그룹_95" data-name="그룹 95" transform="translate(2.933 25.39)">
                <path id="패스_207" data-name="패스 207" d="M321.63,429.947l7.03,3.467a1.748,1.748,0,0,1,.962,2.007c-.184.628-.785,1.113-2.348,1.14-3.474.061-18.858-2.239-18.858-2.239v1.611l-7.139-.805s-.5-8.163,1.672-9.357Z" transform="translate(-301.228 -420.897)" fill="#20120c"/>
                <path id="패스_208" data-name="패스 208" d="M311.1,419.511l11.33,8.17s-1.215,3.119-6.58,1.037-12.095-5.208-12.095-5.208l.983-4.88Z" transform="translate(-302.032 -418.63)" fill="#ffb1a5"/>
              </g>
              <path id="패스_209" data-name="패스 209" d="M301.6,411.7l-4.669-30.27,11.316,1.078,1.938,28.113Z" transform="translate(-296.93 -381.43)" fill="#ffb1a5"/>
            </g>
            <path id="패스_210" data-name="패스 210" d="M301.15,408.78l9.658.068.157,2.368Z" transform="translate(-298.27 -390.113)" fill="#09090b"/>
          </g>
          <g id="그룹_98" data-name="그룹 98" transform="translate(10.524)">
            <path id="패스_211" data-name="패스 211" d="M244.634,205.307s-9.712,3.146-16.886,36.058-9.706,78.989-10.968,103.424h25.97l13.6-101.826L262.769,344.1l26.073.178S287.333,216.384,267.028,205.3H244.634Z" transform="translate(-216.78 -205.3)" fill="#3a2c32"/>
            <line id="선_7" data-name="선 7" y1="2.6" x2="6.853" transform="translate(39.566 35.061)" fill="none" stroke="#09090b" stroke-miterlimit="10" stroke-width="0.35"/>
            <line id="선_8" data-name="선 8" x2="26.509" transform="translate(0.607 128.042)" fill="none" stroke="#09090b" stroke-miterlimit="10" stroke-width="0.35"/>
            <line id="선_9" data-name="선 9" x2="26.093" transform="translate(45.586 128.042)" fill="none" stroke="#09090b" stroke-miterlimit="10" stroke-width="0.35"/>
          </g>
        </g>
        <g id="그룹_104" data-name="그룹 104" transform="translate(0 39.134)">
          <path id="XMLID_6_" d="M288.8,146.82a15.055,15.055,0,0,1,11.316,6.8c4.211,6.552,17.05,16.742,36.87,23.609l2.116,12.245s-33.724-8.443-47.04-22.271Z" transform="translate(-225.469 -146.663)" fill="#f7a59c"/>
          <g id="그룹_100" data-name="그룹 100" transform="translate(31.291)">
            <path id="패스_212" data-name="패스 212" d="M242.685,152.53s-3.522,8.306,3.966,20.2l6.416-6.607-2.655-12.313Z" transform="translate(-241.858 -148.476)" fill="#ffb1a5"/>
            <path id="패스_213" data-name="패스 213" d="M250.994,148.535l-7.924,2.109s6.689,7.6,3.965,20.2l5.945,12.477,22.537.061,4.825-14.9c1.324-4.1,2.341-8.429.328-12.231l-5.153-9.446-4.948-.212Z" transform="translate(-242.242 -146.59)" fill="#fff"/>
            <path id="패스_214" data-name="패스 214" d="M257.59,200.39v3.358s22.783.519,22.394,0,.143-3.3.143-3.3Z" transform="translate(-246.852 -163.67)" fill="#ffb1a5"/>
          </g>
          <g id="그룹_103" data-name="그룹 103" transform="translate(0 4.054)">
            <g id="그룹_102" data-name="그룹 102">
              <path id="패스_215" data-name="패스 215" d="M228.13,152.53s-8.852-.082-14.627,10.818L197.048,183.66a7.052,7.052,0,0,0,4.873,10.627h0c2.621.437,4.511-.642,5.378-2.778l23.049-23.527Z" transform="translate(-196.011 -152.53)" fill="#ffb1a5"/>
              <g id="그룹_101" data-name="그룹 101" transform="translate(0.004 28.162)">
                <path id="패스_216" data-name="패스 216" d="M230.364,222.1l-29.7-15.009a6.832,6.832,0,0,1-4.491-7.938h0c.99-4.5,5.365-6.75,9.357-4.45l28.311,19.984Z" transform="translate(-196.017 -193.791)" fill="#ffb1a5"/>
                <path id="패스_217" data-name="패스 217" d="M245.851,223.038l5.72-1.488-5.6,10.921-5.487-3.4Z" transform="translate(-210.133 -202.604)" fill="#ffb1a5"/>
              </g>
            </g>
            <line id="선_10" data-name="선 10" x1="8.538" y2="16.695" transform="translate(34.194 44.555)" fill="none" stroke="#09090b" stroke-miterlimit="10" stroke-width="0.35"/>
          </g>
        </g>
        <g id="그룹_107" data-name="그룹 107" transform="translate(29.805 0)">
          <path id="패스_218" data-name="패스 218" d="M265.493,90.869s9.173.457,10.047,10.545c.655,7.528-.8,10.9,4.928,16.92,0,0-16.756,9.89-40.788,2.614,0,0,4.518-7.794,4.4-15.193S246.069,95.1,249.925,92.3,261.63,87.845,265.493,90.869Z" transform="translate(-239.68 -89.253)" fill="#fb6045"/>
          <path id="패스_219" data-name="패스 219" d="M282.01,116.357a4.263,4.263,0,1,0,4.327-4.2A4.262,4.262,0,0,0,282.01,116.357Z" transform="translate(-253.118 -96.525)" fill="#ef968f"/>
          <path id="패스_220" data-name="패스 220" d="M271.814,132.224l-.075,9.241c-.021,2.873-1.8,2.5-4.634,2.464h0c-2.416-.034-5.378.628-5.644-1.775l.744-13.985Z" transform="translate(-246.594 -101.608)" fill="#ffb1a5"/>
          <path id="패스_221" data-name="패스 221" d="M272.36,138.446l-9.03-7.576,9.1,1.372Z" transform="translate(-247.188 -102.465)" fill="#4a280d"/>
          <path id="패스_222" data-name="패스 222" d="M270.521,122.782h0c5.447-.28,9.754-5.249,9.672-9.706l-.225-9.658a10.353,10.353,0,0,0-10.19-10.17h0c-5.713-.089-11.419,4.457-11.508,10.177l.293,8.45C258.789,118.407,263.983,122.68,270.521,122.782Z" transform="translate(-245.582 -90.522)" fill="#ffb1a5"/>
          <g id="그룹_105" data-name="그룹 105" transform="translate(20.064 14.382)">
            <path id="패스_223" data-name="패스 223" d="M281.53,119.97l.239,1.345a.553.553,0,0,1-.5.648l-.751.068" transform="translate(-272.71 -113.387)" fill="none" stroke="#4a280d" stroke-linecap="round" stroke-linejoin="round" stroke-miterlimit="10" stroke-width="0.35"/>
            <path id="패스_224" data-name="패스 224" d="M272.062,110.537s2.314-.314,2.389.628c0,0,.034.642-1.986.874s-3.153.218-3.372-.375S270.976,110.6,272.062,110.537Z" transform="translate(-269.077 -110.376)" fill="#4a280d"/>
            <path id="패스_225" data-name="패스 225" d="M285.884,110.329s-1.925-.1-2.034.805c0,0-.061.607,1.624.648s2.218-.2,2.355-.689C287.979,110.533,286.8,110.294,285.884,110.329Z" transform="translate(-273.767 -110.325)" fill="#4a280d"/>
            <path id="패스_226" data-name="패스 226" d="M285.22,116.046a.976.976,0,1,0,.956-1A.976.976,0,0,0,285.22,116.046Z" transform="translate(-274.202 -111.825)" fill="#4a280d"/>
            <path id="패스_227" data-name="패스 227" d="M272.68,116.306a.976.976,0,1,0,.955-1A.976.976,0,0,0,272.68,116.306Z" transform="translate(-270.221 -111.908)" fill="#4a280d"/>
            <path id="패스_228" data-name="패스 228" d="M281.681,125.359l-5.8-.389s.976,1.072,3.645,1.072C281.238,126.042,281.681,125.359,281.681,125.359Z" transform="translate(-271.237 -114.975)" fill="#fd5269"/>
          </g>
          <path id="패스_229" data-name="패스 229" d="M267.8,145.43l6.655.9s-2.928,9.487-21.643,2.259l6.614-2.061Z" transform="translate(-243.848 -107.088)" fill="#ffb1a5"/>
          <path id="패스_230" data-name="패스 230" d="M271.211,91.806s4.832,2.027,3.563,5.3c-1.563,4.027-9.938,9.576-18.36,11.1,0,0-4.58-7.2,0-11.6s8.129-4.928,8.129-4.928Z" transform="translate(-244.346 -90.021)" fill="#fb6045"/>
          <path id="패스_231" data-name="패스 231" d="M286.682,103.411s-7.091-4.935-6.887-9.337c0,0-1.761-1.7,2.348-.232S287.849,100.674,286.682,103.411Z" transform="translate(-252.296 -90.521)" fill="#fb6045"/>
          <path id="패스_232" data-name="패스 232" d="M264.166,109.73c0,.225-2.539,7.74-2.539,7.74l-1.877-6.907Z" transform="translate(-246.052 -95.754)" fill="#fb6045"/>
          <g id="그룹_106" data-name="그룹 106" transform="translate(7.924 16.405)">
            <path id="패스_233" data-name="패스 233" d="M251.29,117.515a4.294,4.294,0,1,0,4.361-4.225A4.3,4.3,0,0,0,251.29,117.515Z" transform="translate(-251.289 -113.289)" fill="#ffb1a5"/>
            <path id="패스_234" data-name="패스 234" d="M258.385,120.219s.048-3.112-2.935-2.669" transform="translate(-252.61 -114.628)" fill="none" stroke="#4a280d" stroke-linecap="round" stroke-linejoin="round" stroke-miterlimit="10" stroke-width="0.35"/>
          </g>
        </g>
      </g>
      <g id="그룹_127" data-name="그룹 127" transform="translate(233.625 58.151)">
        <g id="그룹_116" data-name="그룹 116" transform="translate(20.376 0)">
          <g id="그룹_109" data-name="그룹 109" transform="translate(4.695)">
            <ellipse id="타원_8" data-name="타원 8" cx="10.279" cy="10.374" rx="10.279" ry="10.374" transform="matrix(0.841, -0.54, 0.54, 0.841, 0, 11.105)" fill="#1f120c"/>
            <ellipse id="타원_9" data-name="타원 9" cx="8.497" cy="8.573" rx="8.497" ry="8.573" transform="matrix(0.841, -0.54, 0.54, 0.841, 0.029, 24.347)" fill="#fdbfb2"/>
          </g>
          <g id="그룹_111" data-name="그룹 111" transform="translate(11.344 46.821)">
            <g id="그룹_110" data-name="그룹 110">
              <path id="패스_235" data-name="패스 235" d="M361.03,130.811l.075,13.535c.021,2.88,1.809,2.5,4.635,2.464h0c2.416-.034,4.668-.471,4.934-2.874l-.744-17.186Z" transform="translate(-360.798 -126.75)" fill="#db8d7c"/>
              <path id="패스_236" data-name="패스 236" d="M370.4,137.686,360.69,132.3l9.269-2.191Z" transform="translate(-360.69 -127.817)" fill="#4a280d"/>
            </g>
          </g>
          <g id="그룹_112" data-name="그룹 112" transform="translate(2.764 19.724)">
            <path id="패스_237" data-name="패스 237" d="M375.244,100.161c0,7.8-6.074,14.128-13.562,14.128s-13.562-6.327-13.562-14.128,6.075-13.111,13.562-13.111S375.244,92.36,375.244,100.161Z" transform="translate(-348.12 -87.05)" fill="#1f120c"/>
          </g>
          <g id="그룹_113" data-name="그룹 113" transform="translate(24.817 36.173)">
            <path id="패스_238" data-name="패스 238" d="M387.842,114.856a3.706,3.706,0,1,1-3.706-3.706A3.705,3.705,0,0,1,387.842,114.856Z" transform="translate(-380.43 -111.15)" fill="#db8d7c"/>
            <path id="패스_239" data-name="패스 239" d="M382.82,116.806a3.08,3.08,0,0,1,3.255-2.013" transform="translate(-381.189 -112.294)" fill="none" stroke="#4a280d" stroke-linecap="round" stroke-linejoin="round" stroke-miterlimit="10" stroke-width="0.4"/>
          </g>
          <g id="그룹_114" data-name="그룹 114" transform="translate(0 36.173)">
            <circle id="타원_10" data-name="타원 10" cx="3.706" cy="3.706" r="3.706" fill="#db8d7c"/>
            <path id="패스_240" data-name="패스 240" d="M351.026,116.806a3.08,3.08,0,0,0-3.256-2.013" transform="translate(-345.245 -112.294)" fill="none" stroke="#4a280d" stroke-linecap="round" stroke-linejoin="round" stroke-miterlimit="10" stroke-width="0.4"/>
          </g>
          <path id="패스_241" data-name="패스 241" d="M373.752,101.226a50.534,50.534,0,0,1-1.352,11.535c-.662,2.792-2.526,4.75-5.153,6.32l-.478.287a9.274,9.274,0,0,1-9.207.1h0c-2.853-1.618-4.846-3.747-5.46-6.743a73.758,73.758,0,0,1-1.242-11.494S349.795,89.466,362.142,89.7,373.752,101.226,373.752,101.226Z" transform="translate(-346.218 -68.165)" fill="#db8d7c"/>
          <path id="패스_242" data-name="패스 242" d="M369.492,90.719s-2.955,13.146-20.292,11.958c0,0,.682-12.975,9.084-14.053C358.284,88.624,366.509,87.443,369.492,90.719Z" transform="translate(-345.699 -67.759)" fill="#1f120c"/>
          <path id="패스_243" data-name="패스 243" d="M372.57,89.68s.594,9.084,8,14.272l1.065-4.314C381.641,99.638,382.821,90.6,372.57,89.68Z" transform="translate(-353.118 -68.161)" fill="#1f120c"/>
          <path id="패스_244" data-name="패스 244" d="M353.04,106.26l-2.007,5.631-.874-5.631Z" transform="translate(-346.004 -73.424)" fill="#1f120c"/>
          <path id="패스_245" data-name="패스 245" d="M380.82,106.26l2.088,5.16.8-5.16Z" transform="translate(-355.737 -73.424)" fill="#1f120c"/>
          <g id="그룹_115" data-name="그룹 115" transform="translate(7.406 33.567)">
            <path id="패스_246" data-name="패스 246" d="M366.77,117.32v1.495a.582.582,0,0,0,.7.58l.8-.164" transform="translate(-358.682 -110.503)" fill="none" stroke="#4a280d" stroke-linecap="round" stroke-linejoin="round" stroke-miterlimit="10" stroke-width="0.4"/>
            <path id="패스_247" data-name="패스 247" d="M358.169,107.616s2.341-.321,2.416.635c0,0,.034.648-2.014.887s-3.413.116-3.638-.478S357.07,107.677,358.169,107.616Z" transform="translate(-354.92 -107.405)" fill="#1f120c"/>
            <path id="패스_248" data-name="패스 248" d="M373.872,107.385s-2.45-.334-2.532.669c0,0-.034.676,2.109.928s3.577.123,3.809-.505S375.033,107.46,373.872,107.385Z" transform="translate(-360.133 -107.332)" fill="#1f120c"/>
            <path id="패스_249" data-name="패스 249" d="M361.74,122.837a8.315,8.315,0,0,0,7.931-.307" transform="translate(-357.085 -112.157)" fill="none" stroke="#4a280d" stroke-linecap="round" stroke-linejoin="round" stroke-miterlimit="10" stroke-width="0.4"/>
            <path id="패스_250" data-name="패스 250" d="M360.565,113.961a1.037,1.037,0,1,1-1.038-1.031A1.031,1.031,0,0,1,360.565,113.961Z" transform="translate(-356.054 -109.109)" fill="#1f120c"/>
            <path id="패스_251" data-name="패스 251" d="M375.035,113.961A1.037,1.037,0,1,1,374,112.93,1.031,1.031,0,0,1,375.035,113.961Z" transform="translate(-360.648 -109.109)" fill="#1f120c"/>
          </g>
        </g>
        <g id="그룹_122" data-name="그룹 122" transform="translate(5.237 98.065)">
          <g id="그룹_118" data-name="그룹 118" transform="translate(0 137.243)">
            <path id="패스_252" data-name="패스 252" d="M345.661,423l-.341-19.623,9.3-.471-.683,20.626Z" transform="translate(-329.328 -402.91)" fill="#af5e4c"/>
            <path id="패스_253" data-name="패스 253" d="M345.38,407.1l9.166.048v2.32Z" transform="translate(-329.347 -404.24)" fill="#09090b"/>
            <path id="패스_254" data-name="패스 254" d="M345.38,407.1l9.166.048v2.32Z" transform="translate(-329.347 -404.24)" fill="#09090b"/>
            <g id="그룹_117" data-name="그룹 117" transform="translate(0 14.504)">
              <path id="패스_255" data-name="패스 255" d="M348.293,425.928s-7.105,3.078-10.443-1.768L321.9,433.511l28.6-.2Z" transform="translate(-321.893 -424.16)" fill="#3a2c32"/>
              <rect id="사각형_46" data-name="사각형 46" width="28.605" height="2.641" transform="translate(28.623 11.787) rotate(179.599)" fill="#fff"/>
            </g>
          </g>
          <g id="그룹_120" data-name="그룹 120" transform="translate(64.513 137.243)">
            <path id="패스_256" data-name="패스 256" d="M429.672,423l-3.958-19.623-9.3-.471,4.976,20.626Z" transform="translate(-416.41 -402.91)" fill="#af5e4c"/>
            <g id="그룹_119" data-name="그룹 119" transform="translate(0.968 14.504)">
              <path id="패스_257" data-name="패스 257" d="M420.051,425.928s7.105,3.078,10.443-1.768l15.951,9.351-28.6-.2Z" transform="translate(-417.832 -424.16)" fill="#3a2c32"/>
              <rect id="사각형_47" data-name="사각형 47" width="28.605" height="2.641" transform="translate(0.018 9.154) rotate(0.401)" fill="#fff"/>
            </g>
          </g>
          <g id="그룹_121" data-name="그룹 121" transform="translate(9.421)">
            <path id="패스_258" data-name="패스 258" d="M351.819,201.83s-16.463,18.585-16.121,38.276,3.747,101.826,3.747,101.826h14.968l5.447-110.788,1.979-.123L388.17,341.98l13.971-1.481L385.447,233.786s-5.03-18.961-14.272-30.373Z" transform="translate(-335.692 -201.83)" fill="#3a2c32"/>
            <line id="선_11" data-name="선 11" x1="9.05" y1="1.577" transform="translate(19.539 28.311)" fill="none" stroke="#09090b" stroke-miterlimit="10" stroke-width="0.35"/>
          </g>
        </g>
        <g id="그룹_126" data-name="그룹 126" transform="translate(0 58.663)">
          <g id="그룹_124" data-name="그룹 124" transform="translate(0 9.038)">
            <path id="패스_259" data-name="패스 259" d="M333.446,161.7l-8.791,33.212a4.462,4.462,0,0,0,3.57,5.665h0a5.23,5.23,0,0,0,5.365-2.88l11.316-32.031a6.081,6.081,0,0,0-3.57-7.951h0A6.068,6.068,0,0,0,333.446,161.7Z" transform="translate(-317.473 -157.342)" fill="#db8d7c"/>
            <g id="그룹_123" data-name="그룹 123" transform="translate(0 33.897)">
              <path id="패스_260" data-name="패스 260" d="M322.624,211.977l-3.754,34.106,6.668-.307,6.382-32.6c.457-2.607-1.331-5.754-3.945-6.129h0C325.293,206.66,322.849,209.288,322.624,211.977Z" transform="translate(-315.694 -207.006)" fill="#db8d7c"/>
              <path id="패스_261" data-name="패스 261" d="M318.307,260.76s-9.3,11.733.15,17.964a1.585,1.585,0,0,0,1.993-.219l.068-.075a1.6,1.6,0,0,0,.075-2.164c-1.29-1.543-2.928-4.662.416-8.347,0,0,1.549.519,1.017,3.679a1.293,1.293,0,0,0,1.29,1.529h0a1.326,1.326,0,0,0,1.222-.915c.7-2.054,1.993-7.187-1.085-10.211Z" transform="translate(-314.217 -224.071)" fill="#db8d7c"/>
            </g>
          </g>
          <path id="패스_262" data-name="패스 262" d="M383.991,153.347l45.6,42.242,5.344-6.491L392.522,147.13c-1.843-2.307-6.177-3.064-8.429-1.147l.266-.246A5.244,5.244,0,0,0,383.991,153.347Z" transform="translate(-335.904 -144.352)" fill="#db8d7c"/>
          <g id="그룹_125" data-name="그룹 125" transform="translate(19.352)">
            <path id="패스_263" data-name="패스 263" d="M357.056,146.067,344.62,154.6l10.033,29.062,19.357,1.584,2.573-26.653-1.01-13.992Z" transform="translate(-343.221 -144.259)" fill="#db8d7c"/>
            <path id="패스_264" data-name="패스 264" d="M350.89,149.315s2.539,7.856,9.89,6.19,7.631-10.675,7.631-10.675l9.542-.73-3.829,35.457H349.778l-7.208-26.284Z" transform="translate(-342.57 -144.1)" fill="#fdc75b"/>
          </g>
        </g>
      </g>
      <g id="그룹_152" data-name="그룹 152" transform="translate(344.824 62.076)">
        <g id="그룹_135" data-name="그룹 135" transform="translate(0 123.427)">
          <g id="그룹_130" data-name="그룹 130" transform="translate(81.383 101.915)">
            <g id="그룹_129" data-name="그룹 129" transform="translate(0)">
              <path id="패스_265" data-name="패스 265" d="M609.974,419.211l-.335-24.619-10.169-.533,1.454,25.738Z" transform="translate(-597.36 -394.06)" fill="#faaeb0"/>
              <g id="그룹_128" data-name="그룹 128" transform="translate(0 18.947)">
                <path id="패스_266" data-name="패스 266" d="M598.81,423.779s7.76,3.413,11.412-1.959l18.858,10.375-32.68-.225Z" transform="translate(-596.385 -421.82)" fill="#3a2c32"/>
                <rect id="사각형_48" data-name="사각형 48" width="32.679" height="2.928" transform="translate(0.02 10.162) rotate(0.39)" fill="#fff"/>
              </g>
            </g>
            <path id="패스_267" data-name="패스 267" d="M600.55,413.062l9.63,2.423-.028-2.505Z" transform="translate(-597.703 -400.067)" fill="#09090b"/>
          </g>
          <g id="그룹_133" data-name="그룹 133" transform="translate(0 102.379)">
            <g id="그룹_132" data-name="그룹 132">
              <path id="패스_268" data-name="패스 268" d="M503.31,419.884l9.466-24.612,10.163-.533L512.36,420.478Z" transform="translate(-485.448 -394.74)" fill="#faaeb0"/>
              <g id="그룹_131" data-name="그룹 131" transform="translate(0 18.77)">
                <path id="패스_269" data-name="패스 269" d="M507.42,424.2s-7.76,3.412-11.412-1.959L477.15,432.614l32.68-.225Z" transform="translate(-477.143 -422.24)" fill="#3a2c32"/>
                <rect id="사각형_49" data-name="사각형 49" width="32.679" height="2.928" transform="translate(32.699 13.072) rotate(179.61)" fill="#fff"/>
              </g>
            </g>
            <path id="패스_270" data-name="패스 270" d="M512.24,408.36l8.32,3.4,1-2.45Z" transform="translate(-488.283 -399.064)" fill="#09090b"/>
          </g>
          <g id="그룹_134" data-name="그룹 134" transform="translate(12.34)">
            <path id="패스_271" data-name="패스 271" d="M574.776,244.74l7.542,114.781-22.373.184L552.088,262.5l-32.5,95.179-24.373-2.484L530.8,244.74Z" transform="translate(-495.22 -244.74)" fill="#f4cda6"/>
            <line id="선_12" data-name="선 12" x1="7.917" y1="2.887" transform="translate(48.951 14.872)" fill="none" stroke="#09090b" stroke-miterlimit="10" stroke-width="0.35"/>
          </g>
        </g>
        <g id="그룹_142" data-name="그룹 142" transform="translate(23.359 0)">
          <g id="그룹_137" data-name="그룹 137" transform="translate(0 64.3)">
            <g id="그룹_136" data-name="그룹 136" transform="translate(0 19.889)">
              <path id="패스_272" data-name="패스 272" d="M541,193.543s-11.9,26.4-17.773,54.855l-6.136-1.235s3.453-34.352,11.678-59.912Z" transform="translate(-513.182 -187.25)" fill="#f7a59c"/>
              <path id="패스_273" data-name="패스 273" d="M515.88,271.63s-10.374,13.234.328,20.387a1.761,1.761,0,0,0,2.239-.232l.082-.082a1.829,1.829,0,0,0,.068-2.45c-1.461-1.761-3.344-5.31.4-9.467,0,0,1.754.6,1.181,4.184a1.491,1.491,0,0,0,1.468,1.747h0a1.479,1.479,0,0,0,1.372-1.024c.764-2.327,2.184-8.142-1.311-11.6Z" transform="translate(-511.364 -214.038)" fill="#f7a59c"/>
            </g>
            <path id="패스_274" data-name="패스 274" d="M545.076,158.11s-8.327,2.348-14.736,18.688l15.521,9.494,3.3-8.791Z" transform="translate(-517.389 -158.11)" fill="#fff"/>
          </g>
          <g id="그룹_140" data-name="그룹 140" transform="translate(52.968)">
            <g id="그룹_139" data-name="그룹 139" transform="translate(4.368)">
              <path id="패스_275" data-name="패스 275" d="M595.37,129.831,647.8,87.89l7.569,1.638c1.917-1.87-29.554,32.987-52.125,51.026Z" transform="translate(-595.37 -71.517)" fill="#ffb1a5"/>
              <g id="그룹_138" data-name="그룹 138" transform="translate(50.874 7.062)">
                <path id="패스_276" data-name="패스 276" d="M682.889,86.221a6.55,6.55,0,0,1-9.228,1.495,6.767,6.767,0,0,1-1.468-9.364,6.55,6.55,0,0,1,9.228-1.495A6.78,6.78,0,0,1,682.889,86.221Z" transform="translate(-670.233 -74.672)" fill="#ffb1a5"/>
                <path id="패스_277" data-name="패스 277" d="M676.011,75.266s-1.809-2.443-4.054.239-3.679,7.405,1.379,11.78Z" transform="translate(-669.908 -74.248)" fill="#ffb1a5"/>
              </g>
              <path id="패스_278" data-name="패스 278" d="M675.04,74.848l5.706-10.32a1.255,1.255,0,0,1,1.563-.5h0a1.134,1.134,0,0,1,.525,1.556l-2.477,6.279,5.713-4.477a.92.92,0,0,1,1.283-.082h0a.95.95,0,0,1,.15,1.276l-6.088,7.18Z" transform="translate(-620.663 -63.901)" fill="#ffb1a5"/>
            </g>
            <path id="패스_279" data-name="패스 279" d="M612.627,152.312l-5.57-19.862-13.009,8.122a21.816,21.816,0,0,1-5.078,1.652v3.351l4.368.7,4.259,23.383Z" transform="translate(-588.97 -85.664)" fill="#fff"/>
          </g>
          <g id="그룹_141" data-name="그룹 141" transform="translate(22.493 56.041)">
            <path id="패스_280" data-name="패스 280" d="M576.958,146.01l5.392,8.354c2.075.771,4.7,5.235,4.15,7.412l4.682,51.592-46.862,5.481,3.064-61.475a2.1,2.1,0,0,1,1.481-2.853L559.6,150.18Z" transform="translate(-544.32 -146.01)" fill="#fff"/>
            <line id="선_13" data-name="선 13" x1="0.607" y2="13.644" transform="translate(1.979 20.353)" fill="none" stroke="#ccc" stroke-miterlimit="10" stroke-width="0.5"/>
            <line id="선_14" data-name="선 14" x1="0.717" y1="7.726" transform="translate(42.18 15.766)" fill="none" stroke="#ccc" stroke-miterlimit="10" stroke-width="0.5"/>
          </g>
        </g>
        <g id="그룹_151" data-name="그룹 151" transform="translate(49.36 13.581)">
          <g id="그룹_143" data-name="그룹 143" transform="translate(10.85 32.98)">
            <path id="패스_281" data-name="패스 281" d="M576.545,145.375l-.518-12.968-10.054-.287-.615,15.207c-.068,1.665,1.358,1.365,3,1.276l5.542-.287A2.819,2.819,0,0,0,576.545,145.375Z" transform="translate(-565.357 -132.12)" fill="#ffb1a5"/>
          </g>
          <path id="패스_282" data-name="패스 282" d="M566.79,135.243l10.04,5.993-.348-8.7Z" transform="translate(-554.962 -99.273)" fill="#4a280d"/>
          <g id="그룹_144" data-name="그룹 144" transform="translate(25.984 20.21)">
            <path id="패스_283" data-name="패스 283" d="M595.065,117.232a3.768,3.768,0,1,1-3.768-3.822A3.8,3.8,0,0,1,595.065,117.232Z" transform="translate(-587.53 -113.41)" fill="#ffb1a5"/>
            <path id="패스_284" data-name="패스 284" d="M589.96,119.247c.2-.28.942-2.43,3.31-2.075" transform="translate(-588.302 -114.592)" fill="none" stroke="#4a280d" stroke-linecap="round" stroke-linejoin="round" stroke-miterlimit="10" stroke-width="0.35"/>
          </g>
          <g id="그룹_145" data-name="그룹 145" transform="translate(0 20.21)">
            <path id="패스_285" data-name="패스 285" d="M549.46,117.232a3.768,3.768,0,1,0,3.767-3.822A3.8,3.8,0,0,0,549.46,117.232Z" transform="translate(-549.46 -113.41)" fill="#ffb1a5"/>
            <path id="패스_286" data-name="패스 286" d="M556.52,119.247c-.2-.28-.942-2.43-3.31-2.075" transform="translate(-550.651 -114.592)" fill="none" stroke="#4a280d" stroke-linecap="round" stroke-linejoin="round" stroke-miterlimit="10" stroke-width="0.35"/>
          </g>
          <path id="패스_287" data-name="패스 287" d="M580.247,103.389a54.06,54.06,0,0,1-1.385,12.06c-.676,2.921-2.587,4.962-5.283,6.607l-.485.293a9.279,9.279,0,0,1-9.439.109h0c-2.921-1.693-4.969-3.918-5.6-7.05a78.518,78.518,0,0,1-1.27-12.019s-1.092-12.3,11.562-12.06S580.247,103.389,580.247,103.389Z" transform="translate(-551.779 -86.188)" fill="#ffb1a5"/>
          <g id="그룹_147" data-name="그룹 147" transform="translate(3.502)">
            <path id="패스_288" data-name="패스 288" d="M556.767,109.628s2.669-8.736.738-14.388C557.5,95.24,551.471,98.277,556.767,109.628Z" transform="translate(-554.59 -87.431)" fill="#4a280d"/>
            <path id="패스_289" data-name="패스 289" d="M589.524,109.628s-3.372-8.736-1.433-14.388C588.091,95.24,594.165,97.581,589.524,109.628Z" transform="translate(-565.035 -87.431)" fill="#4a280d"/>
            <g id="그룹_146" data-name="그룹 146" transform="translate(1.503)">
              <path id="패스_290" data-name="패스 290" d="M557.57,92.911s16.722,8.716,23.206,1.809c0,0,5.31-5.426-.532-9.63S561,88.277,561,88.277,557.993,89,557.57,92.911Z" transform="translate(-557.039 -83.799)" fill="#4a280d"/>
              <path id="패스_291" data-name="패스 291" d="M557.323,93.251s-3.119-5.617,5.76-8.381c0,0,2.157,2.252-.935,5.208S557.323,93.251,557.323,93.251Z" transform="translate(-556.792 -84.139)" fill="#4a280d"/>
            </g>
          </g>
          <g id="그룹_150" data-name="그룹 150" transform="translate(5.583 17.097)">
            <g id="그룹_148" data-name="그룹 148" transform="translate(4.382 3.919)">
              <path id="패스_292" data-name="패스 292" d="M566.394,115.771a1.167,1.167,0,1,1-1.167-1.181A1.179,1.179,0,0,1,566.394,115.771Z" transform="translate(-564.06 -114.59)" fill="#4a280d"/>
              <ellipse id="타원_11" data-name="타원 11" cx="1.167" cy="1.181" rx="1.167" ry="1.181" transform="translate(10.798)" fill="#4a280d"/>
            </g>
            <path id="패스_293" data-name="패스 293" d="M572.82,119.61v1.59a.615.615,0,0,0,.73.621l.839-.177" transform="translate(-562.459 -112.265)" fill="none" stroke="#4a280d" stroke-linecap="round" stroke-linejoin="round" stroke-miterlimit="10" stroke-width="0.35"/>
            <path id="패스_294" data-name="패스 294" d="M567.861,110.249l-7.071.86s.566-1.9,3.454-2.218S567.861,110.249,567.861,110.249Z" transform="translate(-558.64 -108.848)" fill="#4a280d"/>
            <path id="패스_295" data-name="패스 295" d="M576.69,110.249l7.071.86s-.566-1.9-3.454-2.218S576.69,110.249,576.69,110.249Z" transform="translate(-563.688 -108.848)" fill="#4a280d"/>
            <g id="그룹_149" data-name="그룹 149" transform="translate(0 0.807)">
              <path id="패스_296" data-name="패스 296" d="M566.854,114.685a4.607,4.607,0,1,1-4.607-4.655A4.629,4.629,0,0,1,566.854,114.685Z" transform="translate(-557.64 -110.03)" fill="none" stroke="#fff" stroke-miterlimit="10" stroke-width="0.35"/>
              <ellipse id="타원_12" data-name="타원 12" cx="4.607" cy="4.655" rx="4.607" ry="4.655" transform="translate(13.05)" fill="none" stroke="#fff" stroke-miterlimit="10" stroke-width="0.35"/>
              <path id="패스_297" data-name="패스 297" d="M571.14,116.9s1.624-2.525,3.836,0" transform="translate(-561.926 -111.854)" fill="none" stroke="#fff" stroke-miterlimit="10" stroke-width="0.35"/>
            </g>
            <path id="패스_298" data-name="패스 298" d="M567.86,125.59h7.419s-.587,1.945-3.713,1.945A4.312,4.312,0,0,1,567.86,125.59Z" transform="translate(-560.885 -114.163)" fill="#fff"/>
          </g>
          <path id="패스_299" data-name="패스 299" d="M566.54,149.37l-8.62,3.488,11.951,3.29,9.241-9.378Z" transform="translate(-552.146 -103.791)" fill="#ffb1a5"/>
        </g>
      </g>
      <g id="그룹_175" data-name="그룹 175" transform="translate(291.196 85.506)">
        <g id="그룹_159" data-name="그룹 159" transform="translate(3.447 19.774)">
          <g id="그룹_155" data-name="그룹 155" transform="translate(51.499)">
            <g id="그룹_154" data-name="그룹 154" transform="translate(8.163)">
              <path id="패스_300" data-name="패스 300" d="M497.159,173.78l17.9,15.6a6.988,6.988,0,0,1,.8,9.747h0a6.985,6.985,0,0,1-9.767.955l-15.063-12.21Z" transform="translate(-491.03 -141.989)" fill="#ffb1a5"/>
              <g id="그룹_153" data-name="그룹 153" transform="translate(13.456)">
                <path id="패스_301" data-name="패스 301" d="M525.362,157.13l-14.005,29.977a6.375,6.375,0,0,0,3.378,8.627h0a6.382,6.382,0,0,0,8.573-4.32l8.907-32.434Z" transform="translate(-510.746 -136.703)" fill="#ffb1a5"/>
                <path id="패스_302" data-name="패스 302" d="M547.048,134.313a.884.884,0,0,0-1.31-.1l-4.477,5.126,1.9-8.764a.932.932,0,0,0-1.788-.512l-2.785,7.883,1.461-9.788a.837.837,0,0,0-1.638-.334l-2.354,8.914.532-7.774a1,1,0,0,0-1.065-1c-.594-.034-.969.587-1.037,1.051l-1.365,10.9-.75-3.4a1.226,1.226,0,0,0-2.416.225c-.369,7.917,1.488,10.886,1.488,10.886l6.846,1.85a14.176,14.176,0,0,0,4.8-7.76l3.965-6.347A.88.88,0,0,0,547.048,134.313Z" transform="translate(-516.829 -127.202)" fill="#ffb1a5"/>
              </g>
            </g>
            <path id="패스_303" data-name="패스 303" d="M479.07,159.68c9.071,2.027,20.305,12.579,20.305,12.579l-7.719,14.975-11.521-9.439Z" transform="translate(-479.07 -137.513)" fill="#82d2f5"/>
          </g>
          <g id="그룹_157" data-name="그룹 157" transform="translate(0 22.707)">
            <g id="그룹_156" data-name="그룹 156" transform="translate(0 10.422)">
              <path id="패스_304" data-name="패스 304" d="M427.412,224.159l-9.951-26.632,16.107-13-12.456-8.791L408.963,186.19c-4.989,4.457-7.235,9.426-3.44,14.934l16.183,26.782Z" transform="translate(-403.617 -175.74)" fill="#ffb1a5"/>
              <path id="패스_305" data-name="패스 305" d="M431.648,244.82s2.8.068,2.341,6.723.607,11.221-3.959,10.914-11.773-5.139-5.781-9.74l2.724-5.324Z" transform="translate(-409.444 -197.671)" fill="#ffb1a5"/>
            </g>
            <path id="패스_306" data-name="패스 306" d="M442.134,160.47c-7.228,1.406-20.674,12.743-20.674,12.743l6.976,15.521,12.244-8.9Z" transform="translate(-409.282 -160.47)" fill="#82d2f5"/>
          </g>
          <g id="그룹_158" data-name="그룹 158" transform="translate(23.85 22.167)">
            <path id="패스_307" data-name="패스 307" d="M447.563,160.219s-6.027,2.764-9,5.583l6.088,36.857,25.861-1.065,4.4-34.475a4.553,4.553,0,0,0-2.839-4.43l-5.856-3.01C463.308,160.874,447.563,160.219,447.563,160.219Z" transform="translate(-438.56 -159.68)" fill="#82d2f5"/>
            <line id="선_15" data-name="선 15" x1="1.14" y1="7.18" transform="translate(1.604 16.217)" fill="none" stroke="#61bad8" stroke-miterlimit="10" stroke-width="0.5"/>
            <line id="선_16" data-name="선 16" y1="7.521" x2="0.785" transform="translate(34.693 15.493)" fill="none" stroke="#61bad8" stroke-miterlimit="10" stroke-width="0.5"/>
          </g>
        </g>
        <g id="그룹_167" data-name="그룹 167" transform="translate(0 83.855)">
          <g id="그룹_162" data-name="그룹 162" transform="translate(51.312 123.497)">
            <g id="그룹_161" data-name="그룹 161" transform="translate(0)">
              <path id="패스_308" data-name="패스 308" d="M487.034,422.574l.9-20.06-9.515-.484.15,21.1Z" transform="translate(-475.23 -402.03)" fill="#faaeb0"/>
              <g id="그룹_160" data-name="그룹 160" transform="translate(0 14.831)">
                <path id="패스_309" data-name="패스 309" d="M476.022,425.569s7.262,3.147,10.682-1.809l17.65,9.562-30.584-.2Z" transform="translate(-473.754 -423.76)" fill="#09090b"/>
                <rect id="사각형_50" data-name="사각형 50" width="30.584" height="2.703" transform="translate(0.018 9.365) rotate(0.384)" fill="#fff"/>
              </g>
            </g>
            <path id="패스_310" data-name="패스 310" d="M478.5,412.35l9.064,2.321.1-2.321Z" transform="translate(-475.256 -405.307)" fill="#09090b"/>
          </g>
          <g id="그룹_165" data-name="그룹 165" transform="translate(0 123.497)">
            <g id="그룹_164" data-name="그룹 164">
              <path id="패스_311" data-name="패스 311" d="M424.99,422.574l2.58-20.06,9.515-.484-3.624,21.1Z" transform="translate(-406.955 -402.03)" fill="#faaeb0"/>
              <g id="그룹_163" data-name="그룹 163" transform="translate(0 14.831)">
                <path id="패스_312" data-name="패스 312" d="M426.9,425.569s-7.262,3.147-10.682-1.809l-17.65,9.562,30.584-.2Z" transform="translate(-398.568 -423.76)" fill="#09090b"/>
                <rect id="사각형_51" data-name="사각형 51" width="30.584" height="2.703" transform="translate(30.602 12.057) rotate(179.616)" fill="#fff"/>
              </g>
            </g>
            <path id="패스_313" data-name="패스 313" d="M427.69,411.21l8.648,3.1.458-2.7Z" transform="translate(-407.812 -404.944)" fill="#09090b"/>
          </g>
          <g id="그룹_166" data-name="그룹 166" transform="translate(13.564)">
            <path id="패스_314" data-name="패스 314" d="M438.254,222.155s-5.18,7.064-9.037,25.554c-4.061,19.459-10.777,102.864-10.777,102.864l23.957,1.058,9.76-93.247.089,93.247h23.09s9.385-111.382-11.227-130.54Z" transform="translate(-418.44 -221.09)" fill="#123c5e"/>
            <line id="선_17" data-name="선 17" x2="8.32" y2="5.146" transform="translate(25.404 32.147)" fill="none" stroke="#09090b" stroke-miterlimit="10" stroke-width="0.35"/>
            <line id="선_18" data-name="선 18" x2="23.95" transform="translate(33.806 119.463)" fill="none" stroke="#09090b" stroke-miterlimit="10" stroke-width="0.35"/>
            <line id="선_19" data-name="선 19" x2="23.943" transform="translate(0.983 119.463)" fill="none" stroke="#09090b" stroke-miterlimit="10" stroke-width="0.35"/>
          </g>
        </g>
        <g id="그룹_174" data-name="그룹 174" transform="translate(23.971 0)">
          <path id="패스_315" data-name="패스 315" d="M475.828,122.159c-1.119-4.252-1.529-3.488-5.3-11.937-2.252-5.051-3.993-7.078-5.03-7.9h0a15.646,15.646,0,0,0-20.878-.2h0c-.99.655-2.84,2.566-5.31,8.1-3.768,8.45-4.177,7.692-5.3,11.937s.307,12.088,9.064,13.616a6.525,6.525,0,0,1-1.529-2.955s3.665,4.989,8.654,4.682h9.426c4.989.307,8.654-4.682,8.654-4.682a6.524,6.524,0,0,1-1.529,2.955C475.521,134.247,476.948,126.4,475.828,122.159Z" transform="translate(-433.687 -98.23)" fill="#4a280d"/>
          <g id="그룹_169" data-name="그룹 169" transform="translate(11.305 27.793)">
            <g id="그룹_168" data-name="그룹 168" transform="translate(5.228)">
              <path id="패스_316" data-name="패스 316" d="M458.23,142.915l.075,9.023c.021,2.812,1.761,2.45,4.525,2.4h0c2.362-.034,4.56-.464,4.819-2.805l-.724-12.586Z" transform="translate(-458.012 -138.95)" fill="#ffb1a5"/>
              <path id="패스_317" data-name="패스 317" d="M467.718,149.482l-9.808-5.105,9.044-2.136Z" transform="translate(-457.91 -139.994)" fill="#4a280d"/>
            </g>
            <path id="패스_318" data-name="패스 318" d="M455.772,157.39l-5.522,2.232s11.4,5.767,20.08-.642l-5.215-1.59Z" transform="translate(-450.25 -144.804)" fill="#ffb1a5"/>
          </g>
          <g id="그룹_170" data-name="그룹 170" transform="translate(8.151 1.351)">
            <path id="패스_319" data-name="패스 319" d="M472.112,113.007A13.524,13.524,0,0,1,458.871,126.8c-7.31,0-13.241-6.177-13.241-13.794s5.924-12.8,13.241-12.8S472.112,105.39,472.112,113.007Z" transform="translate(-445.63 -100.21)" fill="#4a280d"/>
          </g>
          <g id="그룹_171" data-name="그룹 171" transform="translate(29.685 17.404)">
            <path id="패스_320" data-name="패스 320" d="M484.415,127.347a3.617,3.617,0,1,1-3.617-3.617A3.615,3.615,0,0,1,484.415,127.347Z" transform="translate(-477.18 -123.73)" fill="#ffb1a5"/>
            <path id="패스_321" data-name="패스 321" d="M479.5,129.249a3.007,3.007,0,0,1,3.181-1.966" transform="translate(-477.917 -124.846)" fill="none" stroke="#4a280d" stroke-linecap="round" stroke-linejoin="round" stroke-miterlimit="10" stroke-width="0.35"/>
          </g>
          <g id="그룹_172" data-name="그룹 172" transform="translate(5.455 17.404)">
            <circle id="타원_13" data-name="타원 13" cx="3.617" cy="3.617" r="3.617" fill="#ffb1a5"/>
            <path id="패스_322" data-name="패스 322" d="M448.471,129.249a3.006,3.006,0,0,0-3.181-1.966" transform="translate(-442.826 -124.846)" fill="none" stroke="#4a280d" stroke-linecap="round" stroke-linejoin="round" stroke-miterlimit="10" stroke-width="0.35"/>
          </g>
          <path id="패스_323" data-name="패스 323" d="M470.659,114.04a49.609,49.609,0,0,1-1.317,11.262c-.648,2.73-2.464,4.634-5.03,6.17l-.471.28a9.036,9.036,0,0,1-8.982.1h0c-2.784-1.577-4.73-3.658-5.33-6.586a71.786,71.786,0,0,1-1.208-11.221s-1.037-11.487,11.009-11.262S470.659,114.04,470.659,114.04Z" transform="translate(-438.325 -99.673)" fill="#ffb1a5"/>
          <path id="패스_324" data-name="패스 324" d="M466.107,103.791s-3.727,12.92-20.647,11.76c0,0,1.508-12.75,9.712-13.808C455.165,101.737,463.192,100.583,466.107,103.791Z" transform="translate(-437.425 -99.28)" fill="#4a280d"/>
          <path id="패스_325" data-name="패스 325" d="M469.5,102.77s.58,8.866,7.815,13.937l1.044-4.211C478.359,112.489,479.506,103.671,469.5,102.77Z" transform="translate(-445.057 -99.671)" fill="#4a280d"/>
          <path id="패스_326" data-name="패스 326" d="M450.439,118.96l-1.966,5.494-.853-5.494Z" transform="translate(-438.11 -104.811)" fill="#4a280d"/>
          <path id="패스_327" data-name="패스 327" d="M477.56,118.96l2.034,5.03.778-5.03Z" transform="translate(-447.615 -104.811)" fill="#4a280d"/>
          <g id="그룹_173" data-name="그룹 173" transform="translate(12.69 14.86)">
            <path id="패스_328" data-name="패스 328" d="M457.48,126.238a1.085,1.085,0,1,1-1.085-1.078A1.082,1.082,0,0,1,457.48,126.238Z" transform="translate(-453.242 -121.64)" fill="#4a280d"/>
            <path id="패스_329" data-name="패스 329" d="M472.6,126.238a1.085,1.085,0,1,1-1.085-1.078A1.082,1.082,0,0,1,472.6,126.238Z" transform="translate(-458.042 -121.64)" fill="#4a280d"/>
            <path id="패스_330" data-name="패스 330" d="M463.84,129.76v1.454a.568.568,0,0,0,.682.566l.778-.164" transform="translate(-455.95 -123.1)" fill="none" stroke="#4a280d" stroke-linecap="round" stroke-linejoin="round" stroke-miterlimit="10" stroke-width="0.35"/>
            <path id="패스_331" data-name="패스 331" d="M455.447,120.276s2.287-.314,2.362.621c0,0,.034.635-1.966.867s-3.331.116-3.549-.471S454.368,120.338,455.447,120.276Z" transform="translate(-452.28 -120.073)" fill="#4a280d"/>
            <path id="패스_332" data-name="패스 332" d="M470.781,120.055s-2.4-.328-2.471.648c0,0-.034.662,2.054.908s3.488.123,3.713-.491S471.907,120.124,470.781,120.055Z" transform="translate(-457.369 -120.003)" fill="#4a280d"/>
            <path id="패스_333" data-name="패스 333" d="M458.43,135.73h8.545s-.676,2.2-4.273,2.2A4.959,4.959,0,0,1,458.43,135.73Z" transform="translate(-454.233 -124.996)" fill="#fff"/>
          </g>
        </g>
      </g>
      <line id="선_20" data-name="선 20" x2="423.557" transform="translate(60.36 319.955)" fill="none" stroke="#fff" stroke-miterlimit="10" stroke-width="1.5"/>
    </g>
  </g>
</svg>
