<svg xmlns="http://www.w3.org/2000/svg" width="200" height="50" viewBox="0 0 200 50">
  <g id="그룹_519" data-name="그룹 519" transform="translate(-386.242 -25)">
    <path id="패스_349" data-name="패스 349" d="M26.149-13.818c-.068,6.762-3.4,8.47-7.212,8.607-2.994.137-6.055-.683-8.913-4.235-3.538-4.372-10.07,1.639-6.6,5.806,4.218,5.464,9.049,7.036,14.833,7.036,11.771,0,16.874-6.489,16.874-17.213V-40.8c0-5.738-8.981-5.738-8.981,0ZM44.179-1.8c0,5.806,8.981,5.669,8.981,0v-39c0-5.806-8.981-5.6-8.981,0ZM89.834-31.851c0,3.62-1.837,5.464-4.763,5.464H70.715V-36.564H85.071A4.766,4.766,0,0,1,89.834-31.851ZM87.316,2.37c10.206,0,15.513-6.421,15.513-14.276a11.456,11.456,0,0,0-7.756-11.339,10.851,10.851,0,0,0,3.742-8.607c0-6.967-4.831-13.046-13.744-13.046H65.952a4.028,4.028,0,0,0-4.15,4.235v38.8a4.066,4.066,0,0,0,4.15,4.235Zm-16.6-20.423h16.6c7.893,0,7.893,12.09,0,12.09h-16.6Zm47.831,3.62h10.682L139.5.321c4.082,5.191,11.158.137,7.62-5.123l-9.049-11.066c14.424-5.806,10.886-29.03-6.4-29.03h-18.1a4.075,4.075,0,0,0-4.082,4.167v38.8c0,6.011,9.049,5.806,9.049-.137Zm0-22.2h13.132c9.389,0,8.845,14.344,0,14.344H118.546Zm83.892,15.1c0-16.189-12.451-24.454-24.358-25.068-12.587,0-25.651,8.265-25.651,25.068C152.43-4.8,165.493,3.6,178.08,3.053,189.987,3.053,202.438-5.348,202.438-21.537Zm-8.913,0c0,10.724-8.369,16.189-16.193,16.189-7.62,0-15.921-5.464-15.921-16.189,0-10.792,8.3-16.189,15.921-16.189C185.156-37.725,193.525-32.329,193.525-21.537Z" transform="translate(383.804 71.605)" fill="#fff"/>
  </g>
</svg>
